<mxfile host="app.diagrams.net" modified="2024-06-14T03:25:43.809Z" agent="Mozilla/5.0 (X11; Linux x86_64) AppleWebKit/537.36 (KHTML, like Gecko) Chrome/124.0.0.0 Safari/537.36 Edg/124.0.0.0" etag="1lKK21v-LmgyggTbhbaL" version="24.5.4" type="github">
  <diagram name="第 1 页" id="rZ8Ub2-MKYlWhGuQHyz1">
    <mxGraphModel dx="2187" dy="890" grid="1" gridSize="10" guides="1" tooltips="1" connect="1" arrows="1" fold="1" page="1" pageScale="1" pageWidth="827" pageHeight="1169" math="0" shadow="0">
      <root>
        <mxCell id="0" />
        <mxCell id="1" parent="0" />
        <mxCell id="m9QqqRcCzPwHsIWh3rep-1" value="" style="rounded=1;whiteSpace=wrap;html=1;fillColor=#dae8fc;strokeColor=#6c8ebf;sketch=1;curveFitting=1;jiggle=2;" vertex="1" parent="1">
          <mxGeometry x="250" y="100" width="250" height="430" as="geometry" />
        </mxCell>
        <mxCell id="m9QqqRcCzPwHsIWh3rep-2" value="&lt;font style=&quot;font-size: 18px;&quot;&gt;main 主流程&lt;/font&gt;" style="text;strokeColor=none;align=center;fillColor=none;html=1;verticalAlign=middle;whiteSpace=wrap;rounded=0;" vertex="1" parent="1">
          <mxGeometry x="315" y="70" width="120" height="30" as="geometry" />
        </mxCell>
        <mxCell id="m9QqqRcCzPwHsIWh3rep-4" value="" style="rounded=1;whiteSpace=wrap;html=1;fillColor=#d5e8d4;strokeColor=#82b366;sketch=1;curveFitting=1;jiggle=2;" vertex="1" parent="1">
          <mxGeometry x="560" y="100" width="250" height="390" as="geometry" />
        </mxCell>
        <mxCell id="m9QqqRcCzPwHsIWh3rep-5" value="" style="rounded=1;whiteSpace=wrap;html=1;fillColor=#d5e8d4;strokeColor=#82b366;sketch=1;curveFitting=1;jiggle=2;" vertex="1" parent="1">
          <mxGeometry x="-60" y="100" width="250" height="390" as="geometry" />
        </mxCell>
        <mxCell id="m9QqqRcCzPwHsIWh3rep-12" style="edgeStyle=orthogonalEdgeStyle;rounded=0;orthogonalLoop=1;jettySize=auto;html=1;" edge="1" parent="1" source="m9QqqRcCzPwHsIWh3rep-6" target="m9QqqRcCzPwHsIWh3rep-7">
          <mxGeometry relative="1" as="geometry" />
        </mxCell>
        <mxCell id="m9QqqRcCzPwHsIWh3rep-6" value="&lt;font style=&quot;font-size: 20px;&quot;&gt;server.init&lt;/font&gt;" style="rounded=1;whiteSpace=wrap;html=1;sketch=1;curveFitting=1;jiggle=2;" vertex="1" parent="1">
          <mxGeometry x="297.5" y="120" width="155" height="40" as="geometry" />
        </mxCell>
        <mxCell id="m9QqqRcCzPwHsIWh3rep-13" style="edgeStyle=orthogonalEdgeStyle;rounded=0;orthogonalLoop=1;jettySize=auto;html=1;" edge="1" parent="1" source="m9QqqRcCzPwHsIWh3rep-7" target="m9QqqRcCzPwHsIWh3rep-8">
          <mxGeometry relative="1" as="geometry" />
        </mxCell>
        <mxCell id="m9QqqRcCzPwHsIWh3rep-7" value="&lt;font style=&quot;font-size: 20px;&quot;&gt;log_write init&lt;/font&gt;" style="rounded=1;whiteSpace=wrap;html=1;sketch=1;curveFitting=1;jiggle=2;" vertex="1" parent="1">
          <mxGeometry x="297.5" y="190" width="155" height="40" as="geometry" />
        </mxCell>
        <mxCell id="m9QqqRcCzPwHsIWh3rep-8" value="&lt;font style=&quot;font-size: 20px;&quot;&gt;sql_pool init&lt;/font&gt;" style="rounded=1;whiteSpace=wrap;html=1;sketch=1;curveFitting=1;jiggle=2;" vertex="1" parent="1">
          <mxGeometry x="297.5" y="260" width="155" height="40" as="geometry" />
        </mxCell>
        <mxCell id="m9QqqRcCzPwHsIWh3rep-15" style="edgeStyle=orthogonalEdgeStyle;rounded=0;orthogonalLoop=1;jettySize=auto;html=1;" edge="1" parent="1" source="m9QqqRcCzPwHsIWh3rep-9" target="m9QqqRcCzPwHsIWh3rep-10">
          <mxGeometry relative="1" as="geometry" />
        </mxCell>
        <mxCell id="m9QqqRcCzPwHsIWh3rep-9" value="&lt;font style=&quot;font-size: 20px;&quot;&gt;thread_pool init&lt;/font&gt;" style="rounded=1;whiteSpace=wrap;html=1;sketch=1;curveFitting=1;jiggle=2;" vertex="1" parent="1">
          <mxGeometry x="297.5" y="330" width="155" height="40" as="geometry" />
        </mxCell>
        <mxCell id="m9QqqRcCzPwHsIWh3rep-16" style="edgeStyle=orthogonalEdgeStyle;rounded=0;orthogonalLoop=1;jettySize=auto;html=1;" edge="1" parent="1" source="m9QqqRcCzPwHsIWh3rep-10" target="m9QqqRcCzPwHsIWh3rep-11">
          <mxGeometry relative="1" as="geometry" />
        </mxCell>
        <mxCell id="m9QqqRcCzPwHsIWh3rep-10" value="&lt;font style=&quot;font-size: 20px;&quot;&gt;eventListen( )&lt;/font&gt;" style="rounded=1;whiteSpace=wrap;html=1;sketch=1;curveFitting=1;jiggle=2;" vertex="1" parent="1">
          <mxGeometry x="297.5" y="400" width="155" height="40" as="geometry" />
        </mxCell>
        <mxCell id="m9QqqRcCzPwHsIWh3rep-11" value="&lt;font style=&quot;font-size: 20px;&quot;&gt;eventLoop( )&lt;/font&gt;" style="rounded=1;whiteSpace=wrap;html=1;sketch=1;curveFitting=1;jiggle=2;" vertex="1" parent="1">
          <mxGeometry x="297.5" y="470" width="155" height="40" as="geometry" />
        </mxCell>
        <mxCell id="m9QqqRcCzPwHsIWh3rep-14" style="edgeStyle=orthogonalEdgeStyle;rounded=0;orthogonalLoop=1;jettySize=auto;html=1;entryX=0.5;entryY=0.25;entryDx=0;entryDy=0;entryPerimeter=0;" edge="1" parent="1" source="m9QqqRcCzPwHsIWh3rep-8" target="m9QqqRcCzPwHsIWh3rep-9">
          <mxGeometry relative="1" as="geometry" />
        </mxCell>
      </root>
    </mxGraphModel>
  </diagram>
</mxfile>
